<svg width="36" height="17" viewBox="0 0 36 17" fill="none" xmlns="http://www.w3.org/2000/svg">
<path d="M21.8505 1.03004C22.7905 2.00004 24.3405 2.46004 25.6405 3.13004C27.6205 4.10004 29.5405 5.23004 31.7205 5.85004C33.1805 6.21004 34.0605 7.33004 35.1005 8.21004C36.0905 8.98004 35.7805 9.75004 34.5305 10.21C33.3405 10.67 32.2905 11.34 31.2505 12.05C28.7605 13.69 26.0005 14.97 23.1405 15.79C22.2005 16.05 20.9005 16.41 20.2805 15.53C19.7105 14.61 20.7505 13.79 21.3205 13.07C21.9905 12.2 22.8305 11.43 23.7605 10.46C21.9905 10 20.2805 10.15 18.6605 10.05C14.2405 9.85004 9.82046 10.46 5.45046 10.61C3.94046 10.66 2.49046 10.66 1.08046 10.2C-0.159543 9.79004 -0.379543 9.02003 0.560457 8.15003C0.920457 7.74004 1.39046 7.53004 1.91046 7.53004C6.38046 7.22004 10.8005 6.71004 15.2705 7.07004C17.8205 7.28004 20.3705 7.28004 22.9105 7.38004C23.5905 7.38004 24.2105 7.38004 24.8405 7.07004C24.4005 6.31004 23.5705 6.21004 22.8905 6.00004C20.6005 5.33004 18.7805 3.95004 17.2205 2.31004C16.5005 1.54004 16.6505 0.360035 17.6405 0.210035C19.1005 0.0100355 20.5005 -0.399964 21.8505 1.03004Z" fill="#EE522F"/>
</svg>
