<svg width="20" height="20" viewBox="0 0 20 20" fill="none" xmlns="http://www.w3.org/2000/svg">
<path d="M15.91 0.464632C16.54 0.464632 17.06 0.615017 17.68 0.464632C18.3 0.314246 19.45 1.43713 19.45 2.10885C19.6 4.26438 19.29 6.36978 19.03 8.42505C18.66 10.9415 18.41 13.4078 18.36 15.9243C18.36 16.0747 18.31 16.3855 18.36 16.4356C18.98 16.9469 18.62 17.769 18.98 18.3405C19.14 18.6513 18.77 18.9019 18.67 19.2628C16.96 18.9521 15.29 19.1125 13.68 19.1626C13.32 19.2127 13.01 19.2127 12.69 19.2127C10.2 19.2127 7.69996 19.2127 5.24996 19.6739C4.36996 19.8243 3.47996 19.5736 2.59996 19.724C2.44996 19.724 2.28996 19.6238 2.17996 19.5736C1.75996 19.3631 1.55996 19.0122 1.08996 18.9019C0.82996 18.8518 0.61996 18.4407 0.77996 18.2904C1.34996 17.7289 0.98996 17.0572 0.92996 16.4356C0.71996 14.4305 0.77996 12.4253 0.77996 10.3801C0.77996 8.8361 0.82996 7.25204 0.82996 5.65795C0.82996 4.98623 0.98996 4.32453 0.92996 3.65281C0.87996 3.09137 0.82996 2.57003 0.35996 2.10885C-0.210039 1.48725 -0.10004 1.22659 0.62996 0.875686C1.45996 0.51476 2.28996 0.615017 3.11996 0.675172C3.68996 0.7253 4.25996 0.675172 4.77996 0.625043C6.54996 0.314246 8.36996 0.16386 10.19 0.264117C12.12 0.354349 14.04 0.414503 15.91 0.464632Z" fill="#EE522F"/>
</svg>
