<svg width="16" height="14" viewBox="0 0 16 14" fill="none" xmlns="http://www.w3.org/2000/svg">
<path fill-rule="evenodd" clip-rule="evenodd" d="M7.99935 0.333328C8.36754 0.333328 8.66602 0.631805 8.66602 0.999995V7.39052L10.1946 5.86192C10.455 5.60157 10.8771 5.60157 11.1374 5.86192C11.3978 6.12227 11.3978 6.54438 11.1374 6.80473L8.47075 9.4714C8.2104 9.73175 7.78829 9.73175 7.52794 9.4714L4.86128 6.80473C4.60093 6.54438 4.60093 6.12227 4.86128 5.86192C5.12163 5.60157 5.54374 5.60157 5.80409 5.86192L7.33268 7.39052V0.999995C7.33268 0.631805 7.63116 0.333328 7.99935 0.333328Z" fill="#00AE86"/>
<path d="M1.33203 10.3333L1.74603 11.99C1.81813 12.2784 1.98458 12.5345 2.21892 12.7175C2.45326 12.9005 2.74204 12.9999 3.03936 13H12.958C13.2554 12.9999 13.5441 12.9005 13.7785 12.7175C14.0128 12.5345 14.1793 12.2784 14.2514 11.99L14.6654 10.3333" stroke="#00AE86" stroke-width="1.33333" stroke-linecap="round" stroke-linejoin="round"/>
</svg>
