<svg width="14" height="14" viewBox="0 0 14 14" fill="none" xmlns="http://www.w3.org/2000/svg">
<path d="M9.90732 8.33334C9.96065 7.89334 10.0007 7.45334 10.0007 7C10.0007 6.54667 9.96065 6.10667 9.90732 5.66667H12.1607C12.2673 6.09334 12.334 6.54 12.334 7C12.334 7.46 12.2673 7.90667 12.1607 8.33334H9.90732ZM8.72732 12.04C9.12732 11.3 9.43398 10.5 9.64732 9.66667H11.614C10.9681 10.7789 9.94339 11.6213 8.72732 12.04ZM8.56065 8.33334H5.44065C5.37398 7.89334 5.33398 7.45334 5.33398 7C5.33398 6.54667 5.37398 6.1 5.44065 5.66667H8.56065C8.62065 6.1 8.66732 6.54667 8.66732 7C8.66732 7.45334 8.62065 7.89334 8.56065 8.33334ZM7.00065 12.3067C6.44732 11.5067 6.00065 10.62 5.72732 9.66667H8.27398C8.00065 10.62 7.55398 11.5067 7.00065 12.3067ZM4.33398 4.33334H2.38732C3.02655 3.21815 4.05051 2.37433 5.26732 1.96C4.86732 2.7 4.56732 3.5 4.33398 4.33334ZM2.38732 9.66667H4.33398C4.56732 10.5 4.86732 11.3 5.26732 12.04C4.05307 11.6211 3.03055 10.7785 2.38732 9.66667ZM1.84065 8.33334C1.73398 7.90667 1.66732 7.46 1.66732 7C1.66732 6.54 1.73398 6.09334 1.84065 5.66667H4.09398C4.04065 6.10667 4.00065 6.54667 4.00065 7C4.00065 7.45334 4.04065 7.89334 4.09398 8.33334H1.84065ZM7.00065 1.68667C7.55398 2.48667 8.00065 3.38 8.27398 4.33334H5.72732C6.00065 3.38 6.44732 2.48667 7.00065 1.68667ZM11.614 4.33334H9.64732C9.43867 3.50764 9.1297 2.7106 8.72732 1.96C9.95399 2.38 10.974 3.22667 11.614 4.33334ZM7.00065 0.333336C3.31398 0.333336 0.333984 3.33334 0.333984 7C0.333984 8.76811 1.03636 10.4638 2.28661 11.714C2.90566 12.3331 3.64059 12.8242 4.44943 13.1592C5.25827 13.4942 6.12517 13.6667 7.00065 13.6667C8.76876 13.6667 10.4645 12.9643 11.7147 11.714C12.9649 10.4638 13.6673 8.76811 13.6673 7C13.6673 6.12452 13.4949 5.25762 13.1598 4.44878C12.8248 3.63994 12.3338 2.90501 11.7147 2.28596C11.0956 1.6669 10.3607 1.17584 9.55187 0.840806C8.74304 0.505774 7.87613 0.333336 7.00065 0.333336Z" fill="#00AE86"/>
</svg>
