<svg width="218" height="262" viewBox="0 0 218 262" fill="none" xmlns="http://www.w3.org/2000/svg">
<path d="M120.705 25.1672C120.705 25.1158 120.757 25.0643 120.757 24.9615C120.345 25.5787 120.448 25.4758 120.705 25.1672ZM131.201 114.773C131.356 114.722 131.459 114.568 131.613 114.722C131.15 114.362 131.098 114.516 131.201 114.773ZM217.949 87.2537C217.228 85.4534 215.53 83.1386 213.215 81.8527C210.9 80.6181 208.79 80.4638 207.35 80.5153C205.909 80.6181 204.88 80.8753 204.108 81.184C202.667 81.8012 201.793 82.4699 201.793 83.0872C199.992 83.4987 192.583 94.7638 190.165 98.7246C188.415 101.399 184.762 107.572 184.762 107.572C183.63 109.372 179.154 116.574 179.154 116.574L179.103 116.471C178.794 118.117 177.713 121.615 177.148 123.312C175.347 125.524 174.472 128.096 174.472 128.096C172.465 129.845 170.716 132.726 170.202 132.88C170.202 132.88 170.202 132.931 170.253 132.931C170.253 132.931 170.202 132.931 170.202 132.88C169.687 133.137 166.085 133.497 166.034 133.497C166.034 133.497 163.873 130.822 163.719 130.462C163.719 130.462 162.124 126.553 162.175 126.553C162.175 126.604 163.05 125.678 163.513 125.01C164.027 124.29 164.542 123.209 164.799 122.026C164.748 122.078 164.645 122.129 164.593 122.181C164.645 122.129 164.799 121.975 164.799 121.975C164.799 121.872 164.696 119.403 164.954 119.043C164.954 118.837 165.417 117.911 165.468 118.168C166.085 117.088 166.497 115.802 166.446 114.928C166.497 113.127 166.343 112.613 166.394 112.664L166.446 112.304C167.423 111.533 169.636 106.44 169.636 105.463C169.636 104.949 169.584 104.486 169.533 104.074L169.43 103.56C169.533 103.303 169.636 102.994 169.79 102.685C170.665 100.628 170.613 99.3933 170.87 98.0044C172.671 93.3749 174.729 90.8544 174.781 90.0829C174.832 89.6713 175.244 83.5501 177.25 80.5667C177.713 79.7951 178.279 78.9207 178.743 77.9948C179.411 76.7088 179.772 75.1142 179.926 74.2912C180.132 73.3138 180.235 72.8509 180.235 72.6966C180.235 72.5937 180.029 72.5423 180.183 72.1307C182.601 70.3818 184.865 57.7279 184.917 56.7506C184.865 55.6189 190.01 39.9816 190.01 39.9816C192.274 34.6834 190.216 30.0539 186.82 26.9161C186.152 26.5046 185.225 26.0931 184.505 25.8359C183.836 25.6302 183.219 25.5273 182.601 25.373C181.315 25.2186 182.035 25.733 180.852 25.6816C179.669 25.6302 179.051 25.373 177.919 25.4244L175.45 25.4758C174.009 25.7845 173.443 26.4017 172.877 26.9161C171.797 27.9963 171.076 29.0765 170.356 30.3111C169.636 31.4427 169.121 33.2431 169.018 34.4776C168.555 37.1524 159.911 53.0984 158.934 58.088C158.059 58.1394 159.705 60.1455 156.104 65.9581C156.567 64.5178 143.241 112.304 143.241 112.304C143.19 112.819 143.087 113.282 142.984 113.745C142.109 114.671 141.131 115.751 140.205 116.78C138.559 116.059 135.472 117.191 134.957 116.985C134.288 116.78 133.877 116.574 133.465 116.419C133.105 116.265 132.796 116.059 132.076 115.648C131.767 115.442 131.407 115.185 131.201 114.876C131.15 114.825 131.201 114.825 131.15 114.773C130.79 114.876 131.664 105.309 131.716 104.229C131.767 103.817 131.819 103.251 131.87 102.634L131.922 102.325C131.922 102.222 131.922 96.0497 131.561 98.2616C131.664 93.8893 134.957 73.4682 133.722 71.4106C133.414 70.9477 135.369 63.489 135.42 64.6721C135.472 66.9869 142.778 27.0704 142.521 25.6302C142.418 24.9615 142.418 24.3442 142.469 23.8812C142.521 23.624 142.778 22.8525 143.035 22.0294C143.292 19.6118 144.27 10.25 144.476 10.3529C144.476 9.83847 144.733 3.71727 142.932 1.71116C142.469 1.81404 139.485 1.24821 138.456 1.35109C137.015 0.88814 137.324 0.682385 137.221 0.373753C137.221 0.270876 137.067 0.167998 136.501 0.013682C136.038 -0.0891954 133.465 0.425192 132.179 0.322314C131.87 0.322314 129.555 1.09389 128.526 2.17411C128.32 2.4313 128.114 2.63706 127.96 2.84281C127.6 3.30576 127.291 3.66583 126.982 4.0259C126.365 4.74604 125.85 5.41475 125.336 6.13489C124.821 6.85503 124.307 7.72949 123.895 8.96402C123.484 10.3014 123.226 11.2788 123.021 12.9248C123.844 11.7931 121.168 14.7766 121.734 18.3773C121.528 20.2805 121.374 22.1838 121.117 24.087C121.065 24.3956 120.962 24.7043 120.86 24.9615C120.808 25.0129 120.757 25.1158 120.705 25.1672C119.728 27.5848 119.47 30.0024 119.007 32.06C118.544 34.169 118.133 36.1237 117.772 38.0783C116.949 41.9362 116.177 45.7427 115.406 50.5779C114.891 51.4009 114.891 56.4419 115.303 58.088C113.656 68.4272 112.01 78.7149 110.415 89.0541C109.695 92.0375 108.871 96.9756 107.945 102.531C107.585 104.331 107.534 106.337 106.865 107.984C106.144 109.63 104.395 110.658 102.8 111.018C99.6616 110.401 95.5454 108.601 96.3172 105.875C95.9056 104.434 95.3396 102.325 94.9795 101.759C94.5164 96.9756 94.0533 92.1404 94.7737 87.5109C95.3396 83.9102 92.6642 81.1325 93.8475 77.7376C94.2077 76.7088 92.6642 72.6451 92.7671 72.4394C92.7156 72.4394 92.7156 72.4394 92.6642 72.4394C93.5903 70.3304 92.7671 63.7462 93.0243 63.6434C93.333 62.3574 92.0982 47.6974 92.0982 47.4916C91.8409 45.3826 90.3488 39.1585 90.3488 38.5413V38.4898C90.5546 35.5578 89.4742 33.1402 88.9082 30.4654C88.4451 28.3564 87.8277 17.7086 84.9464 13.3363C84.1747 12.1532 80.6245 8.55251 78.8237 9.68416C78.6179 9.83847 76.7656 9.88991 76.5084 9.7356C74.296 8.34675 71.5176 10.3529 69.511 12.1018C67.2986 14.005 65.8579 16.4741 66.0123 19.4061C66.2181 22.9553 66.7326 26.4532 67.1442 30.0024C67.5044 33.1402 66.5782 36.4837 68.9965 39.2614C69.1508 39.4157 69.1508 39.8272 69.0479 40.033C67.0928 45.9999 69.3566 51.9153 69.5624 57.8822C69.6653 60.6085 69.8197 63.3862 70.2828 66.1124C71.6205 74.1883 71.4147 82.367 72.3408 90.4429C73.4213 100.062 73.9873 109.732 73.9358 119.351C73.9358 125.627 75.9939 131.388 70.7973 135.915C70.7973 135.915 68.0189 142.55 64.726 141.779C60.507 140.853 57.9344 139.001 55.3618 136.018C55.1046 135.76 54.8473 135.503 54.59 135.246C53.8183 132.88 52.6349 130.411 53.6639 129.896C52.2233 129.228 50.8855 128.096 49.5993 126.707C48.9818 126.039 48.3644 125.267 47.7984 124.444C47.5412 124.135 47.2839 123.827 47.0781 123.518C47.3868 122.901 47.9013 121.872 47.7984 121.409C47.9013 120.483 47.7984 119.866 47.6441 119.197C47.5926 118.889 47.4383 118.528 47.2839 118.168L47.1296 117.808L46.4607 116.162C45.9462 115.031 45.2259 113.745 44.1968 112.51C43.4765 111.79 42.7562 111.07 41.8815 110.195C41.367 108.189 43.3222 111.378 43.3222 110.144C42.3446 109.424 41.5214 108.344 40.3894 106.595C39.8235 105.772 39.1031 104.743 38.0741 103.663C37.5596 103.148 36.9936 102.582 36.2733 102.068C36.0675 101.914 35.8617 101.811 35.7073 101.657C35.7073 101.554 35.6559 101.502 35.6559 101.399C35.6044 101.194 35.5015 100.782 35.3472 100.422C35.3472 100.268 35.3472 100.268 35.2957 100.011C34.6783 98.0044 34.7812 98.8274 34.6783 98.4159C34.0609 97.2843 33.4949 95.9469 32.7232 94.5066C32.3115 93.7864 31.8999 93.0663 31.334 92.3462C30.9738 91.7803 29.6361 90.4944 28.9157 90.1343C27.7838 89.4656 27.1149 89.0541 26.7548 88.8483C25.8801 87.4595 25.2627 86.0706 23.822 84.7332C23.822 84.7332 17.1848 79.8465 10.9077 79.0235C10.1359 78.9207 9.77579 78.8178 8.5924 78.8692C7.20321 78.8692 5.71112 79.2807 4.52773 80.0009C2.10951 81.4412 0.668869 83.6016 0 86.0706C0.565967 85.2991 1.23484 84.6304 1.95516 84.116C0.308709 87.1509 1.64645 86.2249 1.38919 88.1282C1.28629 89.0541 1.33774 90.1857 1.6979 91.3174C2.21241 92.7062 2.52112 93.0663 2.88128 93.7864C4.37338 96.4613 6.43144 99.0332 7.76918 101.399C10.7534 106.903 13.6346 112.407 13.0687 114.362C15.384 119.249 13.6346 112.356 15.8985 117.294L15.7956 118.889L17.1334 119.814C18.2138 123.312 17.9566 125.524 17.4421 125.833C17.2363 125.01 16.4645 123.467 16.1043 122.592C16.8761 127.53 20.8379 135.555 21.0951 137.252L19.7059 131.851C22.5358 139.155 25.3141 147.437 28.0925 155.616C29.5332 159.731 30.8709 163.743 32.4659 167.755C34.1123 171.768 36.0161 175.574 38.177 178.969L38.1256 177.632C41.3156 182.775 42.5504 184.833 43.7852 187.148C44.9686 189.308 46.6151 192.034 50.7312 196.612L50.371 196.355C52.3262 197.898 54.4871 200.316 55.8249 203.094C54.8988 201.962 55.2589 203.299 55.4133 204.483C55.5676 205.666 55.5676 206.643 54.6415 205.254C56.751 209.421 56.5452 211.324 57.0597 212.198C57.4199 213.176 57.9858 213.536 59.0663 217.599L58.1917 219.503C58.6033 220.891 58.912 221.663 59.1692 222.898C59.4779 224.286 59.5808 225.109 59.0149 228.556C59.2721 223.103 56.8539 232.465 57.0083 226.293C56.751 227.013 56.4423 227.887 56.2365 228.813C55.9792 229.893 55.8763 231.231 56.1336 232.722C56.3908 234.214 57.1626 235.86 58.346 236.992C59.4779 238.123 60.7128 238.741 61.7933 239.101C64.1086 239.821 65.1376 239.718 66.321 239.872C67.4529 239.924 68.5849 240.027 69.6139 240.078C70.6429 240.13 71.8777 238.381 74.0387 238.381C74.4503 238.381 75.4279 238.432 76.2511 238.278L78.1034 237.815C78.9781 237.763 79.9042 237.712 80.8818 238.278C81.8593 238.638 82.6826 239.255 83.763 239.924C85.0493 240.592 85.9755 241.107 87.0045 241.724C89.1654 243.062 91.7895 244.656 96.3687 246.868C95.4425 246.405 95.3396 246.559 94.4135 246.148C97.552 248.257 101.514 248.72 105.476 251.909C108.614 251.858 114.428 252.526 123.381 255.921C122.557 256.178 123.072 256.744 125.85 257.824C125.439 258.75 129.966 260.396 133.774 259.985L133.105 261.065C133.774 261.065 134.443 261.014 135.781 261.065C136.604 261.065 137.633 261.168 139.176 260.705C140.823 260.396 142.881 258.596 143.447 257.053C143.138 257.979 142.469 259.162 141.44 259.985C140.411 260.859 142.161 260.654 143.241 259.419C144.321 258.185 144.785 256.899 144.99 256.024C145.248 255.098 145.299 254.378 145.35 253.761C145.402 253.144 145.453 252.989 145.556 252.578L146.019 250.52C146.688 247.794 145.659 244.913 144.321 249.697C144.321 243.164 146.328 237.146 145.608 237.506L145.299 237.66C145.196 237.763 143.755 238.123 143.035 238.072C142.418 238.072 141.183 237.403 141.183 237.249C141.183 237.249 141.337 236.786 141.234 236.735C141.234 236.735 150.701 231.436 150.187 228.556C149.415 226.293 148.54 228.659 149.93 223.978C150.65 223.258 151.267 222.177 151.576 221.252C151.73 220.737 151.782 220.274 151.833 219.76C151.885 218.782 157.493 212.404 157.647 211.941C157.75 211.478 157.853 211.427 157.545 211.941C157.184 212.456 158.368 209.575 158.316 209.112C158.213 208.649 158.162 208.186 158.419 207.312C158.676 206.489 164.182 193.063 164.233 192.394C164.748 191.931 165.468 189.205 168.504 183.393C169.738 181.438 169.739 182.055 169.893 182.21C169.944 182.261 171.591 179.843 171.539 180.461C172.054 179.946 173.031 178.917 173.031 178.917C173.031 178.917 175.192 173.979 175.244 172.796C175.295 172.796 175.347 172.745 175.347 172.745H175.295C175.295 172.333 177.456 169.607 177.662 169.453C178.743 168.218 178.485 168.373 178.485 168.373C178.485 168.373 190.885 147.488 191.4 146.871C196.905 129.639 207.967 117.088 212.083 105.875C216.096 97.9015 218.36 88.1796 217.949 87.2537ZM139.434 39.4672L139.485 39.4157C139.485 39.4672 139.434 39.5186 139.434 39.4672ZM34.6269 100.988L34.3182 100.834C34.0094 100.679 34.6269 100.988 34.8327 101.091L34.6269 100.988ZM35.2443 101.348L34.9356 101.142C34.0609 100.525 34.524 100.731 34.8327 100.782C34.9356 100.834 34.9356 100.834 35.0899 100.936C35.4501 101.245 35.6044 101.451 35.7073 101.605C35.5015 101.554 35.3986 101.451 35.2443 101.348ZM150.444 226.704C150.444 226.755 150.444 226.755 150.444 226.704ZM174.472 172.899C174.369 172.899 174.369 172.899 174.318 172.899L174.523 172.848C174.523 172.899 174.472 172.899 174.472 172.899ZM140.308 38.3355C140.36 38.2841 140.411 38.2841 140.463 38.2326C140.463 38.1812 140.36 38.2326 140.308 38.3355ZM94.5164 84.4246C94.2077 82.6242 93.5903 80.8239 93.8475 79.1264C93.6932 79.6408 93.6932 80.1552 93.6932 80.6696C93.8475 81.9555 94.2592 83.1901 94.5164 84.4246Z" fill="#F99D2A"/>
</svg>
