<svg width="207" height="271" viewBox="0 0 207 271" fill="none" xmlns="http://www.w3.org/2000/svg">
<path d="M198.598 23.7915C208.213 39.7884 209.256 66.6238 201.089 87.0257C188.635 116.643 174.385 144.232 156.602 169.039C143.453 187.065 133.085 209.437 121.731 229.839C114.954 242.242 108.583 255.457 101.11 270.237C97.9243 253.834 98.2719 239.808 100.415 226.187C98.967 225.782 97.5768 226.187 96.4762 227.81C92.1897 234.186 77.2451 219.406 72.9586 215.813C65.8339 209.785 58.3616 204.221 52.3374 196.976C36.6976 179.356 22.1005 160.171 10.6893 136.929C4.60719 125.337 -4.95043 100.125 4.25964 97.6903C5.30229 90.0976 5.30229 84.0698 1.42132 76.0713C-1.76456 69.29 0.726216 56.8866 5.70776 49.2359C19.9573 28.834 36.6976 18.8069 57.6665 26.3997C67.282 29.5875 77.2451 30.3989 86.1655 38.8031C90.1044 42.8023 93.2903 47.2073 93.6379 54.3943C110.378 29.9932 131.752 15.9669 153.822 4.78061C173.285 -5.42034 184.696 0.607496 198.598 23.7915Z" fill="#003253"/>
</svg>
