<svg width="45" height="50" viewBox="0 0 45 50" fill="none" xmlns="http://www.w3.org/2000/svg">
<path d="M42.6497 17.1126C39.7708 22.4023 36.54 27.3146 32.5957 31.6584C29.6853 34.8219 27.3181 38.8034 24.7559 42.4157C23.2253 44.6179 21.7584 46.9671 20.0628 49.5913C19.5503 46.5499 19.7701 43.9919 20.3426 41.5241C22.0518 34.551 25.1115 28.5388 29.5367 23.4737C32.6264 19.889 37.5559 15.2953 39.5772 10.5493C40.6929 7.80853 40.0919 6.45638 37.6587 5.96999C34.8698 5.4506 30.8002 7.82121 28.5478 9.61238C26.2991 11.332 23.7099 12.7323 22.6272 16.2068C22.2701 17.2935 21.2962 17.6013 20.278 17.1173C19.1931 16.5436 18.5921 15.1915 18.9567 13.9617C19.3139 12.8751 19.734 11.9497 20.1587 10.9384C18.6551 12.6252 17.057 12.0247 15.5338 11.3563C11.9639 9.92037 8.07437 11.8554 6.36895 16.0295C6.02757 16.8154 6.06433 17.4777 6.31118 18.2227C6.82514 19.8718 7.41489 21.4387 8.4473 22.7417L16.7854 33.8444C17.2003 34.3829 17.3609 34.3196 17.7878 34.629C18.5021 35.1832 19.4557 36.6256 19.0341 37.8524C18.6769 38.939 19.3012 39.8474 18.4406 39.3573C18.0775 39.1947 17.7781 39.179 17.46 39.5212C16.4396 40.7166 15.576 40.0111 14.7266 39.3062C13.3018 38.1262 11.8019 37.0141 10.6022 35.6305C7.50646 32.2384 4.65456 28.5576 2.51094 24.1819C1.36822 21.9831 -0.400248 17.2681 1.54753 16.9252C1.84839 15.5485 1.90616 14.4462 1.15661 12.9284C0.564618 11.6772 1.19711 9.42788 2.31055 8.0938C5.4723 4.4985 9.06098 2.84914 13.364 4.48143C15.3432 5.17372 17.4028 5.4252 19.175 7.06842C19.9636 7.84185 20.5766 8.69221 20.5789 10.013C24.3063 5.71522 28.8741 3.38508 33.586 1.57925C37.7629 -0.111053 40.0716 1.11527 42.7427 5.51868C44.5854 8.54367 44.5562 13.4659 42.6497 17.1126Z" fill="#EE522F"/>
</svg>
