<svg width="257" height="244" viewBox="0 0 257 244" fill="none" xmlns="http://www.w3.org/2000/svg">
<path d="M254.844 103.17C252.325 101.289 251.039 99.4607 249.164 98.207C248.521 98.207 248.521 97.5801 248.521 96.3786C249.807 97.0055 250.45 97.0055 252.325 97.0055C247.878 90.8414 242.787 86.5057 237.108 83.4237C225.694 77.8342 215.513 66.7076 203.511 60.5436C196.545 55.581 190.168 49.4169 183.202 43.2529C178.166 40.1708 173.665 35.2082 168.628 32.1262C154.696 24.0816 144.515 16.037 133.102 6.79091C128.654 3.70888 124.26 1.82832 118.527 0C118.527 0 112.204 5.58944 108.989 4.96259C108.346 6.16405 108.346 6.79091 106.471 7.41776C88.7345 20.3727 70.3017 34.0068 53.8516 48.8423C41.7952 58.7152 28.5065 67.3867 17.0932 77.8865C10.7703 82.7446 4.44744 87.7072 0 95.7518C8.89488 97.5801 15.8608 96.9533 24.1126 92.0429C21.5942 95.7518 20.3082 98.8338 17.7898 101.289C12.6993 103.744 12.6993 107.453 17.7898 112.416C20.9512 109.334 25.3986 108.707 29.2031 106.826C33.2754 104.893 37.1335 102.961 41.0451 101.028C41.0451 102.334 41.7952 103.849 43.7242 105.886C47.4215 109.49 47.8502 113.513 48.2253 117.901C48.6539 123.124 47.4215 128.348 47.4215 133.52C47.4215 145.952 46.9929 158.385 46.9929 170.452C46.9929 186.489 46.5642 202.16 48.2253 217.779C48.6539 222.585 51.4939 227.809 46.9929 232.197C45.7604 233.398 47.4215 236.585 49.4577 237.003C53.155 237.786 54.8161 240.607 58.0847 242.226C58.8884 242.644 60.1208 243.428 61.3533 243.428C68.3727 242.226 75.3386 244.211 82.358 243.01C101.702 239.406 121.474 239.406 141.193 239.406C143.658 239.406 146.123 239.406 149.016 238.988C161.769 238.57 174.951 237.368 188.507 239.771C189.311 236.95 192.204 234.965 190.972 232.562C188.079 228.174 190.972 221.749 186.042 217.727C185.614 217.309 186.042 214.906 186.042 213.705C186.471 194.063 188.507 174.788 191.401 155.146C193.437 139.109 195.902 122.654 194.669 105.834C194.669 105.52 194.562 105.102 194.455 104.789C203.189 113.147 213.156 118.632 222.426 124.117C225.587 126.572 230.035 128.453 233.839 124.744C237 123.542 238.876 122.915 242.734 122.915C244.663 122.915 245.252 121.662 246.538 120.46C248.467 118.632 246.538 118.005 245.949 116.751L242.144 114.296C244.663 110.587 247.824 109.334 252.272 109.334C253.558 109.334 256.076 111.214 256.719 108.08C256.773 106.252 258.005 103.796 254.844 103.17ZM166.752 93.0877C151.963 92.6698 136.745 92.3041 121.474 91.4683C107.06 90.6847 92.6461 91.834 78.6608 94.2891C74.5348 94.707 70.0338 95.0727 65.4792 94.707C61.6212 94.4458 57.7096 94.1847 53.8516 94.4981C59.3707 91.5205 64.8898 88.543 70.3553 85.252C84.9301 77.8342 101.434 71.6702 115.366 62.9987C118.527 61.1704 121.045 61.1704 124.26 62.9987C133.745 67.9613 143.926 74.7522 153.41 80.2894C161.447 84.9386 169.86 89.0131 177.791 93.5056C174.093 93.819 170.664 93.0877 166.752 93.0877Z" fill="#0094C5" />
</svg>
