<svg width="25" height="24" viewBox="0 0 25 24" fill="none" xmlns="http://www.w3.org/2000/svg">
<path fill-rule="evenodd" clip-rule="evenodd" d="M0.666992 24V0H24.667V24H0.666992ZM22 4C22 3.264 21.4027 2.66667 20.6667 2.66667C19.9307 2.66667 19.3333 3.264 19.3333 4C19.3333 4.736 19.9307 5.33333 20.6667 5.33333C21.4027 5.33333 22 4.736 22 4ZM12.6667 5.33333C16.348 5.33333 19.3333 8.31867 19.3333 12C19.3333 15.6813 16.348 18.6667 12.6667 18.6667C8.98533 18.6667 6 15.6813 6 12C6 8.31867 8.98533 5.33333 12.6667 5.33333ZM8.66667 12C8.66667 9.79086 10.4575 8 12.6667 8C14.8758 8 16.6667 9.79086 16.6667 12C16.6667 14.2091 14.8758 16 12.6667 16C10.4575 16 8.66667 14.2091 8.66667 12Z" fill="#EE522F"/>
</svg>
