<svg width="46" height="5" viewBox="0 0 46 5" fill="none" xmlns="http://www.w3.org/2000/svg">
<path d="M39.57 0.45001C41.08 0.50001 42.53 0.86001 44.05 1.07001C44.42 1.12001 44.78 1.28001 45.19 1.33001C45.29 1.38001 45.5 1.38001 45.5 1.59001C45.5 1.79001 45.45 1.95001 45.29 2.00001C44.87 2.15001 44.41 2.21001 44.25 2.77001C44.25 2.92001 43.94 2.87001 43.73 2.87001L41.02 2.92001C39.36 2.82001 37.69 2.66001 36.03 2.71001C32.76 2.76001 29.43 2.92001 26.15 3.22001C24.02 3.37001 21.89 3.53001 19.75 3.48001C17.15 3.38001 14.6 3.48001 12.06 3.84001C11.8 3.89001 11.54 3.89001 11.28 3.89001C9.15 3.89001 7.07 4.09001 4.99 4.15001C3.59 4.20001 2.18 3.95001 0.88 3.48001C0.47 3.38001 0 3.22001 0 2.81001C0 2.30001 0.47 2.09001 0.89 1.99001C1.78 1.79001 2.71 1.53001 3.65 1.43001C5.57 1.17001 7.5 1.02001 9.48 0.87001C12.08 0.72001 14.68 0.61001 17.33 0.56001C19.67 0.46001 22.06 0.20001 24.4 0.10001C27 -0.0499899 29.6 1.01253e-05 32.2 0.10001C34.64 0.25001 37.13 0.35001 39.57 0.45001Z" fill="#00AE86"/>
</svg>
