<svg width="44" height="12" viewBox="0 0 44 12" fill="none" xmlns="http://www.w3.org/2000/svg">
<path d="M37.3997 0.569972C38.0197 0.669972 38.6397 0.879972 39.3197 0.979972C40.5097 1.23997 41.7097 1.48997 42.9097 1.69997C43.2197 1.74997 43.4297 1.90997 43.5897 2.25997C42.7597 2.61997 41.8797 2.56997 40.9397 2.66997C41.2497 2.97997 41.6097 2.82997 41.9297 2.97997C41.0397 3.12997 40.2197 3.07997 39.3797 3.02997C38.3397 2.97997 37.2997 3.17997 36.3097 3.28997C35.6297 3.33997 35.0097 3.69997 34.3297 3.84997C32.9197 4.09997 31.4697 3.89997 30.0597 3.99997C29.0197 4.09997 27.9797 4.14997 26.9897 4.35997C26.0497 4.50997 25.1697 4.60997 24.2897 4.71997C23.0897 4.81997 21.8997 5.02997 20.7497 5.43997C18.8197 6.20997 16.7997 6.76997 14.8197 7.48997C13.2097 8.04997 11.6397 8.56997 9.97966 8.86997C8.74966 9.11997 7.49966 9.27997 6.29966 9.73997C5.57966 9.98997 4.78966 10.25 4.11966 10.71C3.28966 11.27 2.08966 11.12 1.30966 10.45C1.04966 10.25 0.839661 10.04 0.639661 9.83997C-0.200338 9.16997 -0.200338 9.01997 0.579661 8.40997C1.09966 7.99997 1.61966 7.63997 2.18966 7.27997C3.74966 6.35997 5.04966 5.12997 6.76966 4.35997C5.98966 4.35997 5.35966 4.81997 4.68966 5.02997C3.90966 5.22997 3.22966 5.84997 2.44966 6.04997C1.72966 6.24997 0.999662 6.76997 0.319661 6.71997C0.369662 6.35997 0.579662 6.25997 0.789662 6.15997C3.22966 4.51997 5.92966 3.49997 8.74966 2.62997C10.6697 2.06997 12.5897 1.44997 14.6197 1.19997C16.7497 0.889972 18.8897 0.529972 21.0697 0.379972C23.7797 0.119972 26.5297 0.119972 29.2297 0.0199721C31.9897 -0.0500279 34.6897 0.209972 37.3997 0.569972Z" fill="#CA3562"/>
</svg>
