<svg xmlns="http://www.w3.org/2000/svg" viewBox="0 0 24 24"><path d="M0,0V24H24V0ZM20.33,19.67a.65.65,0,0,1-.66.66H4.33a.65.65,0,0,1-.66-.66V4.33a.65.65,0,0,1,.66-.66H19.67a.65.65,0,0,1,.66.66Z" fill="#00ae86"/><rect x="6.14" y="9.91" width="2.47" height="7.95" fill="#00ae86"/><path d="M7.38,8.83a1.43,1.43,0,0,1-1.33-.89A1.39,1.39,0,0,1,6,7.11,1.42,1.42,0,0,1,7.1,6a1.36,1.36,0,0,1,.82.08,1.41,1.41,0,0,1,.65.53,1.47,1.47,0,0,1,.24.79A1.44,1.44,0,0,1,7.38,8.83Z" fill="#00ae86"/><path d="M17.87,17.87H15.4V14c0-.92,0-2.11-1.29-2.11s-1.48,1-1.48,2v3.94H10.16v-8h2.37V11h0A2.61,2.61,0,0,1,14.9,9.72c2.51,0,3,1.64,3,3.79Z" fill="#00ae86"/></svg>