<svg width="12" height="16" viewBox="0 0 12 16" fill="none" xmlns="http://www.w3.org/2000/svg">
<path fill-rule="evenodd" clip-rule="evenodd" d="M8.84798 6.84782C8.84798 7.55506 8.56703 8.23334 8.06693 8.73344C7.56684 9.23353 6.88856 9.51449 6.18132 9.51449C5.47407 9.51449 4.79579 9.23353 4.2957 8.73344C3.7956 8.23334 3.51465 7.55506 3.51465 6.84782C3.51465 6.14058 3.7956 5.4623 4.2957 4.9622C4.79579 4.4621 5.47407 4.18115 6.18132 4.18115C6.88856 4.18115 7.56684 4.4621 8.06693 4.9622C8.56703 5.4623 8.84798 6.14058 8.84798 6.84782ZM7.51465 6.84782C7.51465 7.20144 7.37417 7.54058 7.12412 7.79063C6.87408 8.04068 6.53494 8.18115 6.18132 8.18115C5.82769 8.18115 5.48855 8.04068 5.23851 7.79063C4.98846 7.54058 4.84798 7.20144 4.84798 6.84782C4.84798 6.4942 4.98846 6.15506 5.23851 5.90501C5.48855 5.65496 5.82769 5.51449 6.18132 5.51449C6.53494 5.51449 6.87408 5.65496 7.12412 5.90501C7.37417 6.15506 7.51465 6.4942 7.51465 6.84782Z" fill="#00AE86"/>
<path fill-rule="evenodd" clip-rule="evenodd" d="M1.86267 11.0119C1.00323 10.1936 0.40574 9.13885 0.14576 7.98098C-0.11422 6.82312 -0.0250142 5.61416 0.402097 4.507C0.829208 3.39983 1.57504 2.44419 2.54528 1.76091C3.51552 1.07762 4.66659 0.697397 5.85292 0.668308C7.03926 0.639218 8.20758 0.962572 9.21014 1.59748C10.2127 2.23239 11.0045 3.15033 11.4853 4.23523C11.9662 5.32013 12.1146 6.52326 11.9116 7.69248C11.7087 8.86169 11.1636 9.94447 10.3453 10.8039L6.208 15.1492L1.86267 11.0119ZM9.38 9.88457L6.162 13.2646L2.782 10.0466C2.11358 9.41012 1.64889 8.58976 1.4467 7.68922C1.24451 6.78868 1.31389 5.8484 1.64608 4.9873C1.97827 4.12619 2.55833 3.38292 3.31294 2.85148C4.06754 2.32004 4.96278 2.02429 5.88547 2.00163C6.80815 1.97898 7.71683 2.23043 8.4966 2.7242C9.27638 3.21797 9.89222 3.93188 10.2663 4.77565C10.6403 5.61941 10.7558 6.55515 10.598 7.46453C10.4403 8.37391 10.0164 9.21608 9.38 9.88457Z" fill="#00AE86"/>
</svg>
