<svg width="19" height="4" viewBox="0 0 19 4" fill="none" xmlns="http://www.w3.org/2000/svg">
<path d="M15.9492 0.127313C16.261 0.127313 16.5728 0.188534 16.8804 0.347708C17.2349 0.537492 17.6108 0.568102 17.9909 0.598713C18.26 0.629323 18.5248 0.696666 18.8153 0.788497C18.8794 0.788497 18.9691 0.849718 18.9947 0.978281C19.016 1.13745 18.9733 1.2599 18.8623 1.32112C18.6188 1.48029 18.354 1.66395 18.0635 1.70069C17.9055 1.7313 17.7517 1.79252 17.6407 1.85986C17.5937 2.08025 17.8201 2.08025 17.7517 2.33126C17.6407 2.42921 17.5296 2.55165 17.3716 2.61287C17.1495 2.67409 16.9957 2.83327 16.8163 3.08427C16.7052 3.24345 16.5515 3.33528 16.3721 3.33528C15.5477 3.36589 14.7276 3.58628 13.8819 3.45772C13.0148 3.29855 12.1264 3.33528 11.2635 3.36589C10.7553 3.3965 10.2213 3.48833 9.70877 3.58628C8.62385 3.8679 7.50903 3.99646 6.39848 3.95973C5.57838 3.95973 4.75401 3.89851 3.91255 3.99034C3.31029 4.05156 2.73366 3.80056 2.1314 3.83117C2.06733 3.83117 2.02035 3.80056 1.95628 3.83117C1.44372 3.923 0.999495 3.80056 0.60226 3.26794C0.465577 3.07815 0.401507 2.9802 0.44422 2.76593C0.465577 2.63736 0.491205 2.54553 0.533918 2.44758C0.401507 2.19657 0.179397 2.32514 0 2.22718C0 1.63334 0.0683416 1.53539 0.401507 1.41295C0.649245 1.32112 0.892712 1.35173 1.13618 1.28438C1.81959 1.10072 2.4902 0.819107 3.17788 0.696666C4.24145 0.476271 5.30928 0.164045 6.37712 0.0660923C7.10752 0.00487163 7.84219 0.0660923 8.59822 0.0660923C9.93088 0.0660923 11.2635 0.0660923 12.5748 0.00487163C13.7068 -0.0257387 14.8173 0.0967027 15.9492 0.127313Z" fill="#133156"/>
</svg>
