<svg width="19" height="22" viewBox="0 0 19 22" fill="none" xmlns="http://www.w3.org/2000/svg">
<path d="M9.93039 0.240028C10.6104 0.240028 11.0204 0.600028 11.3404 1.11003C11.3404 1.16003 11.3904 1.16003 11.3904 1.21003C11.1304 1.98003 11.6004 2.75003 11.5504 3.52003C11.5004 4.34003 11.7604 5.11003 11.8604 5.93003C11.8604 6.29003 11.9604 6.65003 11.9604 7.01003C11.9604 7.52003 12.1704 7.52003 12.5804 7.52003C13.5204 7.57003 14.4604 7.67003 15.3904 7.67003C15.8604 7.72003 16.3304 7.62003 16.8504 7.52003C17.3704 7.47003 17.8404 7.57003 18.3004 7.72003C18.6104 7.88003 18.6104 8.03003 18.4104 8.28003C18.2504 8.43003 18.0504 8.54003 17.8404 8.74003C18.1404 8.90003 18.4004 8.70003 18.6104 8.90003C18.9704 9.16003 18.9204 9.52003 18.3504 9.72003C18.1404 9.77003 18.1404 9.87003 18.0904 10.08C18.0404 10.54 17.6804 10.7 17.2104 10.7H16.0104C15.8004 10.7 15.5404 10.6 15.5404 11.01C15.5404 11.06 15.3904 11.06 15.2804 11.06C14.3904 10.96 13.5104 11.06 12.6304 11.01C12.4204 11.01 12.2104 11.01 12.2704 11.27C12.3204 11.88 12.1604 12.5 12.2704 13.06C12.4804 13.83 12.4804 14.55 12.5304 15.31C12.5804 16.28 12.3704 17.26 12.2204 18.23C12.1704 18.54 12.2204 18.9 12.0704 19.2C12.0004 19.3 12.0004 19.5 11.8504 19.5C11.6904 19.5 11.5904 19.35 11.5404 19.19C11.4304 18.93 11.3804 18.73 10.9704 18.88C10.6604 18.98 10.8604 19.19 10.7604 19.39C10.3404 19.24 10.3404 19.55 10.4004 19.75C10.4504 20.01 10.4504 20.26 10.6104 20.52C9.83039 20.16 9.31039 20.47 8.84039 21.08C8.22039 20.26 7.70039 19.39 7.54039 18.37C7.33039 17.04 7.54039 15.71 7.70039 14.37C7.75039 13.7 7.75039 13.04 7.75039 12.37V12.01C7.91039 11.29 7.80039 11.14 7.08039 11.29C6.25039 11.44 5.42039 11.19 4.63039 11.39C4.11039 11.49 3.80039 11.08 3.33039 11.14C2.60039 11.29 1.88039 10.93 1.20039 10.93C0.890388 10.88 0.680388 10.73 0.520388 10.52L0.260388 10.21C-0.0496121 9.96003 -0.0996121 9.49003 0.260388 9.19003C0.470388 9.04003 0.990388 9.04003 0.780388 8.52003C1.14039 8.21003 1.45039 7.70003 2.02039 7.70003C2.44039 7.70003 2.80039 7.65003 3.17039 7.60003L6.80039 7.47003C6.96039 7.47003 7.17039 7.52003 7.37039 7.52003C7.22039 6.70003 7.22039 5.93003 7.17039 5.16003C7.12039 4.19003 7.17039 3.16003 7.27039 2.19003C7.27039 1.99003 7.37039 1.88003 7.58039 1.83003C7.89039 1.83003 7.64039 2.19003 7.89039 2.24003C8.05039 1.88003 7.94039 1.52003 7.84039 1.21003C7.69039 0.910028 7.58039 0.700028 7.90039 0.450028C8.16039 0.190028 8.37039 -0.219972 8.94039 0.140028C9.15039 0.290028 9.61039 0.240028 9.93039 0.240028Z" fill="#CA3562"/>
</svg>
