<svg width="22" height="30" viewBox="0 0 22 30" fill="none" xmlns="http://www.w3.org/2000/svg">
<path d="M10.1304 0.199766C13.4104 1.11977 16.5304 2.55977 19.3904 4.49977C20.1704 4.95977 20.8504 5.72977 21.3204 6.54977C21.5804 7.05977 20.8004 7.56977 21.2104 8.13977C21.7804 8.95977 20.2704 8.59977 19.6504 8.49977C17.5704 8.08977 15.3904 7.77977 13.4604 6.75977C11.7504 5.87977 10.4004 4.69977 8.73037 3.72977C7.64037 3.06977 6.60037 1.62977 8.10037 2.24977C9.10037 2.65977 6.60037 0.449766 7.64037 0.149766C8.47037 -0.160234 9.25037 0.0997656 10.1304 0.199766ZM20.0704 20.8398C19.8104 21.6098 20.8004 21.1998 19.7004 22.6298C17.7204 25.0898 15.8504 25.5998 12.4704 28.6798C11.8504 29.2898 11.2204 29.5998 10.4404 29.6498C9.87037 29.6498 8.93037 30.0098 8.78037 29.4998C8.52037 28.5798 7.06037 28.6798 7.01037 27.6498C6.96037 26.6298 7.32037 25.7598 8.31037 25.1898C11.5404 23.2998 14.8104 21.4998 18.5104 20.5298C19.0304 20.3298 20.5304 19.8098 20.0704 20.8398ZM15.8004 12.0298C17.1504 12.2298 18.4504 12.5398 19.6504 13.2098C20.3804 13.5698 21.2104 14.0298 21.0004 14.9998C20.8404 15.8698 19.8604 15.8698 19.1804 16.1298C18.9204 16.1798 18.6604 16.1798 17.9904 16.2298C16.3804 16.0198 14.3004 15.5098 12.3204 16.1298C11.0204 16.5398 7.59037 15.8198 4.47037 16.1798C3.43037 16.2798 2.34037 15.7698 1.35037 15.4598C0.360373 15.0998 0.520373 14.2798 0.210373 13.4598C0.00037308 12.8998 -0.159627 12.4898 0.310373 12.1798C0.990373 11.7698 1.82037 11.5098 2.65037 11.5098C7.01037 11.4198 11.4904 11.3598 15.8004 12.0298Z" fill="#EE522F"/>
</svg>
