<svg width="198" height="245" viewBox="0 0 198 245" fill="none" xmlns="http://www.w3.org/2000/svg">
<path d="M108.248 8.35375C110.873 12.8723 112.396 18.5468 113.919 23.8009C118.434 40.0361 119.17 56.5866 122.583 73.9253C145.161 74.2931 167.005 78.076 188.848 73.1897C192.261 72.4541 196.357 69.827 199.402 73.5575C202.763 78.076 203.551 82.9624 200.925 88.269C198.3 93.5757 193.784 97.3061 188.481 100.721C171.888 112.018 155.715 122.946 141.801 137.658C135.395 144.068 132.769 150.11 135.027 159.515C138.44 174.594 138.808 190.041 141.433 205.121C143.323 216.417 136.55 225.454 135.762 236.383C129.724 236.751 124.105 249.939 120.325 243.161C103.364 227.346 102.997 203.965 89.0822 188.518C87.1919 187.362 85.3016 188.15 83.8313 189.253C69.4965 199.079 53.6915 207.328 41.247 219.412C35.9961 224.298 31.8479 226.558 24.6543 224.298C23.5516 213.738 24.6543 203.545 27.2797 192.984C32.163 174.121 37.8339 155.679 45.3426 137.605C48.3356 130.827 47.2329 125.889 41.562 122.158C28.7499 112.333 20.0861 98.0417 5.38369 90.4758C2.75827 89.3724 0.132842 86.325 0.500401 82.542C0.867961 77.6557 5.38369 77.6557 8.79674 76.8676C15.9379 75.3964 23.4991 74.9761 31.0078 75.7117H36.6787C47.2329 74.9761 60.045 77.2354 67.5537 71.1931C75.4825 64.7831 77.7403 52.3308 82.9912 42.5581C85.6166 37.304 85.249 32.7329 83.3587 27.4788C82.6236 24.4839 81.4684 21.4365 80.7333 18.4417C78.1079 7.1453 78.843 4.88603 86.7718 1.47084C94.333 -1.83926 104.52 0.787808 108.248 8.35375ZM95.8557 131.616L92.0751 97.3061C69.0764 110.126 70.5992 119.531 95.8557 131.616ZM128.621 109.338L156.083 94.6791C134.239 91.9995 125.943 93.5232 128.621 109.338Z" fill="#CC3160"/>
</svg>
